name rise45.9887peak57.8056fall74.9286.mot
datacolumns 19
datarows 26
range 10.77663000000000 10.81829500000000
endheader
time	ground_force1_vx	ground_force1_vy	ground_force1_vz	ground_force1_px	ground_force1_py	ground_force1_pz	ground_force2_vx	ground_force2_vy	ground_force2_vz	ground_force2_px	ground_force2_py	ground_force2_pz	ground_torque1_x	ground_torque1_y	ground_torque1_z	ground_torque2_x	ground_torque2_y	ground_torque2_z	
10.77663000000000	-38.33503900000000	778.98444600000005	52.95494100000000	0.15604800000000	0.00000000000000	0.10310000000000	-9.52811800000000	53.24368900000000	9.75943500000000	0.33679600000000	0.00000000000000	-0.08897500000000	0.00000000000000	24.50471500000000	0.00000000000000	0.00000000000000	5.65446900000000	0.00000000000000	
10.77829200000000	-38.69177400000000	776.65129000000002	52.63669900000000	0.15516700000000	0.00000000000000	0.10299000000000	-10.06354400000000	59.89499100000000	10.51822000000000	0.34143900000000	0.00000000000000	-0.08949400000000	0.00000000000000	24.34926900000000	0.00000000000000	0.00000000000000	6.18001900000000	0.00000000000000	
10.77996100000000	-39.05999300000000	774.21988499999998	52.30301900000000	0.15430500000000	0.00000000000000	0.10287700000000	-10.42927200000000	66.42409300000000	11.14893100000000	0.34591800000000	0.00000000000000	-0.08996200000000	0.00000000000000	24.19300700000000	0.00000000000000	0.00000000000000	6.64512500000000	0.00000000000000	
10.78162600000000	-39.43991000000000	771.68868299999997	51.95385300000000	0.15346200000000	0.00000000000000	0.10276100000000	-10.62099000000000	72.78924499999999	11.64545100000000	0.35024600000000	0.00000000000000	-0.09038600000000	0.00000000000000	24.03610100000000	0.00000000000000	0.00000000000000	7.04431200000000	0.00000000000000	
10.78329500000000	-39.83170100000000	769.05613400000004	51.58917300000000	0.15264100000000	0.00000000000000	0.10264000000000	-10.64201500000000	78.97337500000000	12.00839500000000	0.35443400000000	0.00000000000000	-0.09077200000000	0.00000000000000	23.87871700000000	0.00000000000000	0.00000000000000	7.37587100000000	0.00000000000000	
10.78495800000000	-40.23550300000000	766.32068800000002	51.20897000000000	0.15184300000000	0.00000000000000	0.10251500000000	-10.50203400000000	84.98164900000000	12.24409900000000	0.35849100000000	0.00000000000000	-0.09112600000000	0.00000000000000	23.72100800000000	0.00000000000000	0.00000000000000	7.64142700000000	0.00000000000000	
10.78662700000000	-40.65141100000000	763.48080000000004	50.81325700000000	0.15106800000000	0.00000000000000	0.10238700000000	-10.21553200000000	90.83761800000001	12.36331300000000	0.36242400000000	0.00000000000000	-0.09145200000000	0.00000000000000	23.56311700000000	0.00000000000000	0.00000000000000	7.84531500000000	0.00000000000000	
10.78829500000000	-41.07947500000000	760.53492900000003	50.40206900000000	0.15031700000000	0.00000000000000	0.10225400000000	-9.80010400000000	96.57852400000000	12.37976100000000	0.36623900000000	0.00000000000000	-0.09175200000000	0.00000000000000	23.40517200000000	0.00000000000000	0.00000000000000	7.99382600000000	0.00000000000000	
10.78996200000000	-41.51970200000000	757.48154699999998	49.97545900000000	0.14959100000000	0.00000000000000	0.10211700000000	-9.27480200000000	102.25029200000000	12.30870000000000	0.36993900000000	0.00000000000000	-0.09203100000000	0.00000000000000	23.24729300000000	0.00000000000000	0.00000000000000	8.09442300000000	0.00000000000000	
10.79162700000000	-41.97204800000000	754.31913499999996	49.53350600000000	0.14889100000000	0.00000000000000	0.10197500000000	-8.65864500000000	107.90267299999999	12.16560600000000	0.37352800000000	0.00000000000000	-0.09229100000000	0.00000000000000	23.08958200000000	0.00000000000000	0.00000000000000	8.15498700000000	0.00000000000000	
10.79329700000000	-42.43642300000000	751.04619500000001	49.07630600000000	0.14821600000000	0.00000000000000	0.10183000000000	-7.96939100000000	113.58490000000000	11.96506600000000	0.37700800000000	0.00000000000000	-0.09253500000000	0.00000000000000	22.93213100000000	0.00000000000000	0.00000000000000	8.18315900000000	0.00000000000000	
10.79496200000000	-42.91268200000000	747.66124500000001	48.60398200000000	0.14756900000000	0.00000000000000	0.10168000000000	-7.22260900000000	119.34210800000000	11.71992300000000	0.38038200000000	0.00000000000000	-0.09276400000000	0.00000000000000	22.77501700000000	0.00000000000000	0.00000000000000	8.18580400000000	0.00000000000000	
10.79662500000000	-43.40062700000000	744.16282799999999	48.11667600000000	0.14694800000000	0.00000000000000	0.10152600000000	-6.43108400000000	125.21266100000000	11.44070600000000	0.38365000000000	0.00000000000000	-0.09298000000000	0.00000000000000	22.61830400000000	0.00000000000000	0.00000000000000	8.16862300000000	0.00000000000000	
10.79829800000000	-43.90000500000000	740.54951700000004	47.61455200000000	0.14635300000000	0.00000000000000	0.10136800000000	-5.60453000000000	131.22642999999999	11.13533000000000	0.38681500000000	0.00000000000000	-0.09318500000000	0.00000000000000	22.46203900000000	0.00000000000000	0.00000000000000	8.13592500000000	0.00000000000000	
10.79996100000000	-44.41050200000000	736.81991400000004	47.09779800000000	0.14578600000000	0.00000000000000	0.10120500000000	-4.74958900000000	137.40398500000001	10.80904300000000	0.38987700000000	0.00000000000000	-0.09338100000000	0.00000000000000	22.30625900000000	0.00000000000000	0.00000000000000	8.09053900000000	0.00000000000000	
10.80163300000000	-44.93174800000000	732.97266000000002	46.56662300000000	0.14524500000000	0.00000000000000	0.10103800000000	-3.87005500000000	143.75658400000000	10.46458500000000	0.39283700000000	0.00000000000000	-0.09356800000000	0.00000000000000	22.15098400000000	0.00000000000000	0.00000000000000	8.03385800000000	0.00000000000000	
10.80329300000000	-45.46330900000000	729.00643600000001	46.02125700000000	0.14473000000000	0.00000000000000	0.10086800000000	-2.96726600000000	150.28683500000000	10.10249800000000	0.39569500000000	0.00000000000000	-0.09374700000000	0.00000000000000	21.99622000000000	0.00000000000000	0.00000000000000	7.96597700000000	0.00000000000000	
10.80496200000000	-46.00468800000000	724.91996800000004	45.46195500000000	0.14424100000000	0.00000000000000	0.10069200000000	-2.04061700000000	156.98983400000000	9.72154800000000	0.39845100000000	0.00000000000000	-0.09392000000000	0.00000000000000	21.84195900000000	0.00000000000000	0.00000000000000	7.88592000000000	0.00000000000000	
10.80663000000000	-46.55532200000000	720.71203500000001	44.88899000000000	0.14377800000000	0.00000000000000	0.10051300000000	-1.08811100000000	163.85462600000000	9.31919700000000	0.40110600000000	0.00000000000000	-0.09408800000000	0.00000000000000	21.68818100000000	0.00000000000000	0.00000000000000	7.79189500000000	0.00000000000000	
10.80829800000000	-47.11458300000000	716.38146700000004	44.30266100000000	0.14333900000000	0.00000000000000	0.10033000000000	-0.10691700000000	170.86580300000000	8.89208700000000	0.40365900000000	0.00000000000000	-0.09425000000000	0.00000000000000	21.53485000000000	0.00000000000000	0.00000000000000	7.68157600000000	0.00000000000000	
10.80996000000000	-47.68177500000000	711.92715599999997	43.70328500000000	0.14292300000000	0.00000000000000	0.10014400000000	0.90610900000000	178.00511299999999	8.43649500000000	0.40611100000000	0.00000000000000	-0.09440900000000	0.00000000000000	21.38191700000000	0.00000000000000	0.00000000000000	7.55237500000000	0.00000000000000	
10.81162800000000	-48.25613200000000	707.34806000000003	43.09120000000000	0.14253100000000	0.00000000000000	0.09995300000000	1.95398400000000	185.25294199999999	7.94873500000000	0.40846200000000	0.00000000000000	-0.09456400000000	0.00000000000000	21.22932300000000	0.00000000000000	0.00000000000000	7.40168900000000	0.00000000000000	
10.81329200000000	-48.83682000000000	702.64320299999997	42.46676900000000	0.14216000000000	0.00000000000000	0.09975900000000	3.03924300000000	192.58960400000001	7.42548100000000	0.41071200000000	0.00000000000000	-0.09471500000000	0.00000000000000	21.07699300000000	0.00000000000000	0.00000000000000	7.22711000000000	0.00000000000000	
10.81495600000000	-49.42293500000000	697.81168500000001	41.83036900000000	0.14180900000000	0.00000000000000	0.09956100000000	4.16368200000000	199.99636300000000	6.86400600000000	0.41286000000000	0.00000000000000	-0.09486500000000	0.00000000000000	20.92484300000000	0.00000000000000	0.00000000000000	7.02657800000000	0.00000000000000	
10.81662400000000	-50.01350300000000	692.85268699999995	41.18240300000000	0.14147800000000	0.00000000000000	0.09935900000000	5.32820800000000	207.45617799999999	6.26234100000000	0.41490800000000	0.00000000000000	-0.09501200000000	0.00000000000000	20.77277500000000	0.00000000000000	0.00000000000000	6.79849500000000	0.00000000000000	
10.81829500000000	-50.60747900000000	687.76547100000005	40.52329000000000	0.14116400000000	0.00000000000000	0.09915500000000	6.53277300000000	214.95416800000001	5.61934500000000	0.41685400000000	0.00000000000000	-0.09515700000000	0.00000000000000	20.62068100000000	0.00000000000000	0.00000000000000	6.54178400000000	0.00000000000000	
